<svg xmlns="http://www.w3.org/2000/svg" xmlns:xlink="http://www.w3.org/1999/xlink" width="20.866292029074557" height="20.871685974650816" viewBox="-6.859889930719513e-8 2.8587215017743546 20.866292029074557 20.871685974650816"><defs><linearGradient id="gradient-a2f667fa" x1="0.5" y1="0" x2="0.5" y2="1"><stop offset="0" stop-color="#ed8770"></stop><stop offset="1" stop-color="#d9519d"></stop></linearGradient><linearGradient id="gradient-a2f667fa" x1="0.5" y1="0" x2="0.5" y2="1"><stop offset="0" stop-color="#ed8770"></stop><stop offset="1" stop-color="#d9519d"></stop></linearGradient></defs><g transform="matrix(1,0,0,1,3.3218252367545054e-13,2.858722448348999)"><g><path d="M 20.61763763427734 69.82705688476563 C 20.39437103271484 68.79716491699219 20.00948143005371 67.82330322265625 19.48345565795898 66.91304016113281 C 18.16614723205566 68.06432342529297 16.42584800720215 69.35799407958984 15.08234691619873 69.52494812011719 C 15.32285594940186 70.53111267089844 15.01147937774658 71.48114013671875 14.35164070129395 72.14102172851563 C 13.48503684997559 73.00833129882813 12.33245372772217 73.48577880859375 11.10589599609375 73.48577880859375 C 9.880033493041992 73.48577880859375 8.727450370788574 73.00833129882813 7.860150814056396 72.14102172851563 C 7.583395957946777 71.86334228515625 7.356837749481201 71.65995788574219 7.49407958984375 71.23776245117188 C 7.574264526367188 70.98983764648438 7.787474155426025 70.80716705322266 8.044902801513672 70.76573181152344 C 8.850371360778809 70.63600158691406 9.507148742675781 70.09263610839844 9.717670440673828 69.381591796875 C 9.848098754882813 68.94014739990234 10.09050846099854 68.53398132324219 10.4185733795166 68.20661926269531 C 11.10167789459229 67.52309417724609 12.11530303955078 67.29222106933594 13.03117752075195 67.499267578125 C 13.1854305267334 66.15688323974609 14.52508068084717 64.37088012695313 15.64999389648438 63.07753753662109 C 11.72253513336182 60.81482696533203 6.537557125091553 61.26664733886719 3.057838916778564 64.74826049804688 C 0.5822458267211914 67.22386169433594 -0.4629907310009003 70.64480590820313 0.190311074256897 74.13435363769531 C 0.9434968233108521 78.15635681152344 4.136262893676758 81.44085693359375 8.136584281921387 82.30810546875 C 8.902654647827148 82.47380828857422 9.670811653137207 82.55668640136719 10.43285083770752 82.55668640136719 C 12.21681308746338 82.55668640136719 13.77101612091064 82.21833038330078 14.36322975158691 80.41795349121094 C 14.7293004989624 79.30546569824219 14.4461030960083 78.10334014892578 13.62362384796143 77.28090667724609 C 13.07970809936523 76.73698425292969 13.07970809936523 75.85791778564453 13.62362384796143 75.31404113769531 C 14.14932537078857 74.78834533691406 15.06482791900635 74.78834533691406 15.59048271179199 75.31404113769531 C 16.41231155395508 76.13587951660156 17.61170959472656 76.41972351074219 18.72753524780273 76.05364990234375 C 19.80739593505859 75.69847106933594 20.58236694335938 74.78765106201172 20.74941253662109 73.67724609375 C 20.9409294128418 72.41194152832031 20.89680290222168 71.11674499511719 20.61763763427734 69.82705688476563 Z M 7.652366161346436 64.47457122802734 C 8.802864074707031 64.47457122802734 9.738760948181152 65.41046905517578 9.738760948181152 66.56095886230469 C 9.738760948181152 67.71145629882813 8.802863121032715 68.64735412597656 7.652365207672119 68.64735412597656 C 6.50186824798584 68.64735412597656 5.565971374511719 67.71145629882813 5.565971374511719 66.56095886230469 C 5.565971374511719 65.41051483154297 6.501822471618652 64.47457122802734 7.652366161346436 64.47457122802734 Z M 2.784097671508789 70.73379516601563 C 2.784097671508789 69.58329772949219 3.719994783401489 68.64739990234375 4.870491504669189 68.64739990234375 C 6.020988464355469 68.64739990234375 6.956885814666748 69.58329772949219 6.956885814666748 70.73379516601563 C 6.956885814666748 71.88429260253906 6.020988464355469 72.8201904296875 4.870491504669189 72.8201904296875 C 3.719994783401489 72.8201904296875 2.784097671508789 71.88429260253906 2.784097671508789 70.73379516601563 Z M 6.261405467987061 78.38394165039063 C 5.110908508300781 78.38394165039063 4.175011157989502 77.44804382324219 4.175011157989502 76.29754638671875 C 4.175011157989502 75.14704895019531 5.110908508300781 74.21115112304688 6.261405467987061 74.21115112304688 C 7.411902904510498 74.21115112304688 8.347800254821777 75.14704895019531 8.347800254821777 76.29754638671875 C 8.347846031188965 77.447998046875 7.411902904510498 78.38394165039063 6.261405467987061 78.38394165039063 Z" transform="matrix(1,0,0,1,0.00009870529174804688,-61.685001373291016)" fill="url(#gradient-a2f667fa)"/></g></g></svg>