<svg xmlns="http://www.w3.org/2000/svg" xmlns:xlink="http://www.w3.org/1999/xlink" width="17.515729873580554" height="18.985439852371428" viewBox="-6.803130414567704e-8 2.0145654678344727 17.515729873580554 18.985439852371428"><defs><linearGradient id="gradient-be7a3d3a" x1="0.5" y1="0" x2="0.5" y2="1"><stop offset="0" stop-color="#ed8770"></stop><stop offset="1" stop-color="#d9519d"></stop></linearGradient><linearGradient id="gradient-be7a3d3a" x1="0.5" y1="0" x2="0.5" y2="1"><stop offset="0" stop-color="#ed8770"></stop><stop offset="1" stop-color="#d9519d"></stop></linearGradient></defs><g transform="matrix(1,0,0,1,-8.872902412804251e-13,2.0145654678344727)"><g><path d="M 57.1536979675293 52.83331680297852 L 57.76681137084961 52.2202033996582 L 58.4675407409668 52.92093276977539 L 59.69379806518555 51.69466781616211 L 57.06612014770508 49.06699752807617 L 55.83986282348633 50.29325485229492 L 56.54058456420898 50.99394607543945 L 55.75228500366211 51.78224563598633 C 51.54800033569336 49.24214553833008 46.11746215820313 50.55598831176758 43.66497802734375 54.7602653503418 C 41.21249389648438 58.96455001831055 42.52629089355469 64.21990966796875 46.64299774169922 66.760009765625 C 50.75970077514648 69.30010986328125 56.19020462036133 67.98627471923828 58.64272689819336 63.78197860717773 C 60.83244705200195 60.1908073425293 60.21933364868164 55.63618850708008 57.1536979675293 52.83331680297852 Z M 51.19761276245117 65.35858917236328 C 47.78163909912109 65.35858917236328 45.06639099121094 62.64334487915039 45.06639099121094 59.22735977172852 C 45.06639099121094 55.81137466430664 47.78163909912109 53.09608840942383 51.19761276245117 53.09608840942383 L 51.19761276245117 59.22731399536133 L 57.3288459777832 59.22731399536133 C 57.32889175415039 62.6432991027832 54.61359786987305 65.35858917236328 51.19761276245117 65.35858917236328 Z" transform="matrix(1,0,0,1,-42.431724548339844,-49.06699752807617)" fill="url(#gradient-be7a3d3a)"/></g></g></svg>