<svg xmlns="http://www.w3.org/2000/svg" xmlns:xlink="http://www.w3.org/1999/xlink" width="18.11994171142578" height="13.901876878853017" viewBox="0 2.1170394896314804 18.11994171142578 13.901876878853017"><defs><linearGradient id="gradient-1dfb4156" x1="0.5" y1="0" x2="0.5" y2="1"><stop offset="0" stop-color="#ed8770"></stop><stop offset="1" stop-color="#d9519d"></stop></linearGradient><linearGradient id="gradient-1dfb4156" x1="0.5" y1="0" x2="0.5" y2="1"><stop offset="0" stop-color="#ed8770"></stop><stop offset="1" stop-color="#d9519d"></stop></linearGradient></defs><g transform="matrix(1,0,0,1,0,2.1170380115509033)"><g><path d="M 16.48350524902344 87.13584899902344 L 9.175156593322754 87.13584899902344 L 7.721430778503418 85.40805816650391 C 7.672525882720947 85.34927368164063 7.599244117736816 85.31630706787109 7.522833824157715 85.31868743896484 L 1.626505017280579 85.31868743896484 C 0.7262672781944275 85.32524108886719 0 86.05686950683594 0 86.95710754394531 L 0 97.58400726318359 C 0.001092280494049191 98.48731994628906 0.7331188321113586 99.21934509277344 1.63643479347229 99.22044372558594 L 16.48350524902344 99.22044372558594 C 17.38682174682617 99.21934509277344 18.11884689331055 98.48731994628906 18.11994171142578 97.58400726318359 L 18.11994171142578 88.77227783203125 C 18.11884689331055 87.86896514892578 17.38682174682617 87.13694000244141 16.48350524902344 87.13584899902344 Z" transform="matrix(1,0,0,1,0,-85.31856536865234)" fill="url(#gradient-1dfb4156)"/></g></g></svg>