<svg xmlns="http://www.w3.org/2000/svg" xmlns:xlink="http://www.w3.org/1999/xlink" width="25.796386241912842" height="16" viewBox="918 155 25.796386241912842 16"><defs><linearGradient id="gradient-ef4aeff1" x1="0.5" y1="0" x2="0.5" y2="1"><stop offset="0" stop-color="#ed8770"></stop><stop offset="1" stop-color="#d9519d"></stop></linearGradient><linearGradient id="gradient-710296dd" x1="0.5" y1="0" x2="0.5" y2="1"><stop offset="0" stop-color="#ed8770"></stop><stop offset="1" stop-color="#d9519d"></stop></linearGradient><linearGradient id="gradient-91f68346" x1="0.5" y1="0" x2="0.5" y2="1"><stop offset="0" stop-color="#ed8770"></stop><stop offset="1" stop-color="#d9519d"></stop></linearGradient><linearGradient id="gradient-629f293f" x1="0.5" y1="0" x2="0.5" y2="1"><stop offset="0" stop-color="#ed8770"></stop><stop offset="1" stop-color="#d9519d"></stop></linearGradient><linearGradient id="gradient-e6a7ad04" x1="0.5" y1="0" x2="0.5" y2="1"><stop offset="0" stop-color="#ed8770"></stop><stop offset="1" stop-color="#d9519d"></stop></linearGradient><linearGradient id="gradient-f3df0a18" x1="0.5" y1="0" x2="0.5" y2="1"><stop offset="0" stop-color="#ed8770"></stop><stop offset="1" stop-color="#d9519d"></stop></linearGradient><linearGradient id="gradient-ef4aeff1" x1="0.5" y1="0" x2="0.5" y2="1"><stop offset="0" stop-color="#ed8770"></stop><stop offset="1" stop-color="#d9519d"></stop></linearGradient><linearGradient id="gradient-710296dd" x1="0.5" y1="0" x2="0.5" y2="1"><stop offset="0" stop-color="#ed8770"></stop><stop offset="1" stop-color="#d9519d"></stop></linearGradient><linearGradient id="gradient-91f68346" x1="0.5" y1="0" x2="0.5" y2="1"><stop offset="0" stop-color="#ed8770"></stop><stop offset="1" stop-color="#d9519d"></stop></linearGradient><linearGradient id="gradient-629f293f" x1="0.5" y1="0" x2="0.5" y2="1"><stop offset="0" stop-color="#ed8770"></stop><stop offset="1" stop-color="#d9519d"></stop></linearGradient><linearGradient id="gradient-e6a7ad04" x1="0.5" y1="0" x2="0.5" y2="1"><stop offset="0" stop-color="#ed8770"></stop><stop offset="1" stop-color="#d9519d"></stop></linearGradient><linearGradient id="gradient-f3df0a18" x1="0.5" y1="0" x2="0.5" y2="1"><stop offset="0" stop-color="#ed8770"></stop><stop offset="1" stop-color="#d9519d"></stop></linearGradient></defs><g transform="matrix(1,0,0,1,894,-162)"><g transform="matrix(1,0,0,1,24,323.24493408203125)"><path d="M 16.45095062255859 208.8669738769531 L 1.667346239089966 208.8669738769531 C 0.7479848861694336 208.8669738769531 3.814697265625e-06 209.6149139404297 3.814697265625e-06 210.5354461669922 C 3.814697265625e-06 211.4548034667969 0.7479848265647888 212.2028045654297 1.667346239089966 212.2028045654297 L 16.45095062255859 212.2028045654297 C 17.37031364440918 212.2028045654297 18.1182918548584 211.4548034667969 18.1182918548584 210.5354461669922 C 18.1182918548584 209.6149139404297 17.37031364440918 208.8669738769531 16.45095062255859 208.8669738769531 Z" transform="matrix(1,0,0,1,7.678094387054443,-208.86697387695312)" fill="url(#gradient-ef4aeff1)"/><ellipse cx="2" cy="2" rx="2" ry="2" transform="matrix(1,0,0,1,0,-0.24493408203125)" fill="url(#gradient-710296dd)"/></g><g transform="matrix(1,0,0,1,24,317)"><path d="M 16.45095062255859 208.8669738769531 L 1.667346239089966 208.8669738769531 C 0.7479848861694336 208.8669738769531 3.814697265625e-06 209.6149139404297 3.814697265625e-06 210.5354461669922 C 3.814697265625e-06 211.4548034667969 0.7479848265647888 212.2028045654297 1.667346239089966 212.2028045654297 L 16.45095062255859 212.2028045654297 C 17.37031364440918 212.2028045654297 18.1182918548584 211.4548034667969 18.1182918548584 210.5354461669922 C 18.1182918548584 209.6149139404297 17.37031364440918 208.8669738769531 16.45095062255859 208.8669738769531 Z" transform="matrix(1,0,0,1,7.678094387054443,-208.86697387695312)" fill="url(#gradient-91f68346)"/><ellipse cx="2" cy="2" rx="2" ry="2" fill="url(#gradient-629f293f)"/></g><g transform="matrix(1,0,0,1,24,329.4898681640625)"><path d="M 16.45095062255859 208.8669738769531 L 1.667346239089966 208.8669738769531 C 0.7479848861694336 208.8669738769531 3.814697265625e-06 209.6149139404297 3.814697265625e-06 210.5354461669922 C 3.814697265625e-06 211.4548034667969 0.7479848265647888 212.2028045654297 1.667346239089966 212.2028045654297 L 16.45095062255859 212.2028045654297 C 17.37031364440918 212.2028045654297 18.1182918548584 211.4548034667969 18.1182918548584 210.5354461669922 C 18.1182918548584 209.6149139404297 17.37031364440918 208.8669738769531 16.45095062255859 208.8669738769531 Z" transform="matrix(1,0,0,1,7.678094387054443,-208.86697387695312)" fill="url(#gradient-e6a7ad04)"/><ellipse cx="2" cy="2" rx="2" ry="2" transform="matrix(1,0,0,1,0,-0.4898681640625)" fill="url(#gradient-f3df0a18)"/></g></g></svg>