<svg xmlns="http://www.w3.org/2000/svg" xmlns:xlink="http://www.w3.org/1999/xlink" width="30" height="34.163594616505975" viewBox="-5339.000164031982 258 30 34.163594616505975"><g><g transform="matrix(1,0,0,1,-5459.000164031982,-448)"><g transform="matrix(1,0,0,1,120,730.163594616506)"><text x="0" y="0" dominant-baseline="alphabetic" font-family="Circular Std Book" font-size="9.279720059801283" font-weight="normal" letter-spacing="0.18559440119602566px" fill="#c1c0c0" fill-rule="evenodd"><tspan x="0" y="8" font-family="Circular Std Book" font-size="9.279720059801283" font-weight="normal" letter-spacing="0.18559440119602566px" fill="#c1c0c0" fill-rule="evenodd">Shuffle</tspan></text></g><g transform="matrix(1,0,0,1,124,706)"><path d="M19.88815533178534 116.21364039655114L17.309982364551562 116.21364039655114C16.40887882941304 116.21364039655114 15.54936347155285 115.83009909407916 14.890685785232419 115.13220155274327L11.353053625247558 111.3855593060599L14.892043365119198 107.63755489502701C15.550021477039428 106.93966655750427 16.409578403813242 106.5561160512191 17.311340958314286 106.5561160512191L19.88926653981814 106.5561160512191L19.88926653981814 108.16573412148502L22.726134009240607 105.75136223896516L19.889264512066255 103.3369903564453L19.889264512066255 104.9466084267112L17.311338930562396 104.9466084267112C16.04871359516432 104.9466084267112 14.845632179983195 105.48416633879083 13.923771562677402 106.4618690043455L5.739112020101413 115.13060929306477C5.079033664166654 115.8284976305873 4.2208789278210705 116.21364039655114 3.3211725137310735 116.21364039655114C3.3197723510547186 116.21364039655114 0.03194035962224007 116.21364039655114 0.03194035962224007 116.21364039655114L0.03194035962224007 117.8200739474598L3.315653986976984 117.82165700332536L3.321872341600263 117.82165700332536C4.581040613503991 117.82165700332536 5.7827213590707816 117.28409909124572 6.706682727329085 116.30639642569098L10.31374561878252 112.48624332320887L13.922371400001044 116.30793346249058C14.844932605582994 117.28563612804531 16.04801402076411 117.82320324393804 17.309939781761983 117.82320324393804L19.888112748995763 117.82320324393804L19.888112748995763 119.43281211039081L22.724978190666345 117.0185322660027L19.888112748995763 114.60403153009847C19.888153304033462 114.60407754916423 19.888153304033462 116.21364039655114 19.888153304033462 116.21364039655114z" transform="matrix(1,0,0,1,0.22187903511834045,-103.33699035644531)" fill="#e2e2e2" fill-rule="evenodd"/><path d="M3.2906245804584273 139.4245652887933C4.189631166679233 139.4245652887933 5.0477861564938 139.80810659126513 5.706464349752206 140.50599492878774L8.204129483909515 143.15126287233454L9.243394907584976 142.05065248569116L6.674736152194 139.33026301904061C5.752174946612051 138.35256035348579 4.55049369410729 137.8150024414063 3.2913246617966045 137.8150024414063C3.289265479757739 137.8150024414063 3.2871654892121898 137.8150024414063 3.2851063071733235 137.8150024414063L-0.00000762939453125 137.81654868201895L-0.00000762939453125 139.42298223292767L3.285765326535837 139.42298223292767C3.287865570550368 139.4230190481805 3.2892241643130884 139.4245652887933 3.290624326989441 139.4245652887933z" transform="matrix(1,0,0,1,0.25251154980333723,-136.20389335340653)" fill="#e2e2e2" fill-rule="evenodd"/></g></g><g transform="matrix(1,0,0,1,-5335.000164031982,258)"><path d="M19.88815533178534 116.21364039655114L17.309982364551562 116.21364039655114C16.40887882941304 116.21364039655114 15.54936347155285 115.83009909407916 14.890685785232419 115.13220155274327L11.353053625247558 111.3855593060599L14.892043365119198 107.63755489502701C15.550021477039428 106.93966655750427 16.409578403813242 106.5561160512191 17.311340958314286 106.5561160512191L19.88926653981814 106.5561160512191L19.88926653981814 108.16573412148502L22.726134009240607 105.75136223896516L19.889264512066255 103.3369903564453L19.889264512066255 104.9466084267112L17.311338930562396 104.9466084267112C16.04871359516432 104.9466084267112 14.845632179983195 105.48416633879083 13.923771562677402 106.4618690043455L5.739112020101413 115.13060929306477C5.079033664166654 115.8284976305873 4.2208789278210705 116.21364039655114 3.3211725137310735 116.21364039655114C3.3197723510547186 116.21364039655114 0.03194035962224007 116.21364039655114 0.03194035962224007 116.21364039655114L0.03194035962224007 117.8200739474598L3.315653986976984 117.82165700332536L3.321872341600263 117.82165700332536C4.581040613503991 117.82165700332536 5.7827213590707816 117.28409909124572 6.706682727329085 116.30639642569098L10.31374561878252 112.48624332320887L13.922371400001044 116.30793346249058C14.844932605582994 117.28563612804531 16.04801402076411 117.82320324393804 17.309939781761983 117.82320324393804L19.888112748995763 117.82320324393804L19.888112748995763 119.43281211039081L22.724978190666345 117.0185322660027L19.888112748995763 114.60403153009847C19.888153304033462 114.60407754916423 19.888153304033462 116.21364039655114 19.888153304033462 116.21364039655114z" transform="matrix(1,0,0,1,0.22187903511834045,-103.33699035644531)" fill="#e2e2e2" fill-rule="evenodd"/><path d="M3.2906245804584273 139.4245652887933C4.189631166679233 139.4245652887933 5.0477861564938 139.80810659126513 5.706464349752206 140.50599492878774L8.204129483909515 143.15126287233454L9.243394907584976 142.05065248569116L6.674736152194 139.33026301904061C5.752174946612051 138.35256035348579 4.55049369410729 137.8150024414063 3.2913246617966045 137.8150024414063C3.289265479757739 137.8150024414063 3.2871654892121898 137.8150024414063 3.2851063071733235 137.8150024414063L-0.00000762939453125 137.81654868201895L-0.00000762939453125 139.42298223292767L3.285765326535837 139.42298223292767C3.287865570550368 139.4230190481805 3.2892241643130884 139.4245652887933 3.290624326989441 139.4245652887933z" transform="matrix(1,0,0,1,0.25251154980333723,-136.20389335340653)" fill="#e2e2e2" fill-rule="evenodd"/></g></g></svg>