<svg xmlns="http://www.w3.org/2000/svg" xmlns:xlink="http://www.w3.org/1999/xlink" width="18.000000476837158" height="18.000001907348633" viewBox="290 91 18.000000476837158 18.000001907348633"><g transform="matrix(1,0,0,1,290,91)" fill="none"><path d="M 17.55947875976563 15.43222713470459 L 13.64907073974609 11.52189445495605 C 13.62828922271729 11.50111103057861 13.60391044616699 11.48658466339111 13.58219432830811 11.46724224090576 C 14.35163307189941 10.30006694793701 14.80071353912354 8.902921676635742 14.80071353912354 7.400429248809814 C 14.80071353912354 3.313265085220337 11.48744678497314 0 7.400356769561768 0 C 3.313266038894653 0 0 3.313265085220337 0 7.400356769561768 C 0 11.4873743057251 3.313193321228027 14.80071353912354 7.400284767150879 14.80071353912354 C 8.902850151062012 14.80071353912354 10.29992198944092 14.35163307189941 11.46709823608398 13.58219432830811 C 11.48644065856934 13.60383892059326 11.50089550018311 13.62821769714355 11.52167797088623 13.64900016784668 L 15.43215847015381 17.55947875976563 C 16.01959228515625 18.14684295654297 16.97197151184082 18.14684295654297 17.55947875976563 17.55947875976563 C 18.14684104919434 16.97204399108887 18.14684104919434 16.01966285705566 17.55947875976563 15.43222713470459 Z M 7.400356769561768 12.23524188995361 C 4.730041027069092 12.23524188995361 2.565398693084717 10.07059955596924 2.565398693084717 7.400356292724609 C 2.565398693084717 4.730040550231934 4.73011302947998 2.565398216247559 7.400356769561768 2.565398216247559 C 10.07052803039551 2.565398216247559 12.23524188995361 4.73011302947998 12.23524188995361 7.400356292724609 C 12.23524188995361 10.07060050964355 10.07052803039551 12.23524188995361 7.400356769561768 12.23524188995361 Z" fill="#ffffff" fill-rule="evenodd"/></g></svg>