<svg xmlns="http://www.w3.org/2000/svg" xmlns:xlink="http://www.w3.org/1999/xlink" width="40.00048828125" height="38.999786376953125" viewBox="301 241.0000457763672 40.00048828125 38.999786376953125"><path d="M 5701.99951171875 173.9998321533203 C 5696.6572265625 173.9998321533203 5691.634765625 171.9715881347656 5687.85791015625 168.2887268066406 C 5684.080078125 164.6059722900391 5682 159.7090148925781 5682 154.4999389648438 C 5682 149.2914123535156 5684.080078125 144.3946533203125 5687.85791015625 140.7116851806641 C 5691.634765625 137.0284729003906 5696.6572265625 135.0000457763672 5701.99951171875 135.0000457763672 C 5707.341796875 135.0000457763672 5712.3642578125 137.0284729003906 5716.14208984375 140.7116851806641 C 5719.919921875 144.3950347900391 5722.00048828125 149.2917938232422 5722.00048828125 154.4999389648438 C 5722.00048828125 159.7086334228516 5719.919921875 164.6055755615234 5716.14208984375 168.2887268066406 C 5712.36474609375 171.9715881347656 5707.34228515625 173.9998321533203 5701.99951171875 173.9998321533203 Z M 5697.00146484375 146.8151245117188 C 5696.44921875 146.8151245117188 5696 147.264404296875 5696 147.8166351318359 L 5696 163.1836395263672 C 5696 163.7357482910156 5696.44970703125 164.1849365234375 5697.00244140625 164.1849365234375 C 5697.18896484375 164.1849365234375 5697.373046875 164.1306762695313 5697.53515625 164.0280151367188 L 5709.66650390625 156.3452453613281 C 5709.95703125 156.1604309082031 5710.130859375 155.8444976806641 5710.130859375 155.5001373291016 C 5710.130859375 155.1557769775391 5709.95703125 154.83984375 5709.66650390625 154.655029296875 L 5697.53515625 146.9722595214844 C 5697.37255859375 146.8694763183594 5697.18798828125 146.8151245117188 5697.00146484375 146.8151245117188 Z" transform="matrix(1,0,0,1,-5381,106)" fill="#e2e2e2" fill-rule="evenodd"/></svg>