<svg xmlns="http://www.w3.org/2000/svg" xmlns:xlink="http://www.w3.org/1999/xlink" width="28.000036239624023" height="19.00000156647002" viewBox="233 252.00000000000006 28.000036239624023 19.00000156647002"><g transform="matrix(1,0,0,1,233,251.6766357421875)"><g transform="matrix(1,0,0,1,-3.5936630631190365e-15,5.925815393936773e-14)"><g transform="matrix(1,0,0,1,13.140661239624023,0)"><polygon points="9.499999046325684,0 19,15 0,15" transform="matrix(0,-1,1,0,-0.140625,19.3233642578125)" fill="#e2e2e2" fill-rule="evenodd"/></g><g transform="matrix(1,0,0,1,0,0.0000015664700185880065)"><polygon points="9.499999046325684,0 19,16 0,16" transform="matrix(0,-1,1,0,0,19.3233642578125)" fill="#e2e2e2" fill-rule="evenodd"/></g></g><rect x="0" y="0" width="0" height="16.827531814575195" transform="matrix(1,0,0,1,0.9348635077476501,0.6552699208259583)" fill="none" stroke="#e2e2e2" stroke-width="1" stroke-linecap="round"/></g></svg>