<svg xmlns="http://www.w3.org/2000/svg" xmlns:xlink="http://www.w3.org/1999/xlink" width="21.999601364135742" height="22.000499725341797" viewBox="309.6497802734375 669 21.999601364135742 22.000499725341797"><defs><linearGradient id="gradient-0e295627" x1="0.5" y1="0" x2="0.5" y2="1"><stop offset="0" stop-color="#ed8770"></stop><stop offset="1" stop-color="#d9519d"></stop></linearGradient></defs><path d="M 9.842400550842285 20.84220123291016 L 9.842400550842285 12.15810012817383 L 1.158300042152405 12.15810012817383 C 0.5184000134468079 12.15810012817383 0 11.63969993591309 0 10.99980068206787 C 0 10.36079978942871 0.5184000134468079 9.842400550842285 1.158300042152405 9.842400550842285 L 9.842400550842285 9.842400550842285 L 9.842400550842285 1.157400012016296 C 9.842400550842285 0.5184000134468079 10.36079978942871 0 10.99980068206787 0 C 11.63969993591309 0 12.15810012817383 0.5184000134468079 12.15810012817383 1.157400012016296 L 12.15810012817383 9.842400550842285 L 20.84220123291016 9.842400550842285 C 21.481201171875 9.842400550842285 21.99960136413574 10.36079978942871 21.99960136413574 10.99980068206787 C 21.99960136413574 11.63969993591309 21.481201171875 12.15810012817383 20.84220123291016 12.15810012817383 L 12.15810012817383 12.15810012817383 L 12.15810012817383 20.84220123291016 C 12.15810012817383 21.48210144042969 11.63969993591309 22.0004997253418 10.99980068206787 22.0004997253418 C 10.36079978942871 22.0004997253418 9.842400550842285 21.48210144042969 9.842400550842285 20.84220123291016 Z" transform="matrix(1,0,0,1,309.6497802734375,669)" fill="url(#gradient-0e295627)"/></svg>